{"glyphs":{"0":{"ha":693,"x_min":0,"x_max":0,"o":"m 456 914 b 694 740 589 951 701 867 b 557 349 686 596 621 455 b 387 137 511 275 447 195 b 270 45 346 99 304 65 b 23 90 176 -10 70 2 b 140 613 -51 231 75 507 b 207 722 161 645 177 680 b 456 914 270 810 349 885 m 518 801 b 375 732 465 801 408 762 b 377 726 375 731 376 729 b 381 676 382 714 384 691 b 329 621 373 644 355 626 b 298 623 319 619 307 621 b 248 543 283 606 255 575 b 214 497 243 519 232 509 l 207 483 b 146 333 183 436 161 382 b 135 140 118 243 114 168 b 167 134 140 134 152 131 b 224 160 186 138 201 145 b 418 360 286 202 357 276 b 564 686 489 460 543 579 b 559 788 575 742 580 769 b 518 801 549 797 538 801 "},"1":{"ha":457,"x_min":0,"x_max":0,"o":"m 77 10 b 1 57 38 -1 7 26 b 5 95 -1 67 0 75 b 163 557 45 256 84 357 b 265 785 193 631 231 718 b 269 796 267 791 269 796 b 250 789 269 796 260 793 b 212 779 223 780 221 779 b 166 882 162 776 125 841 b 218 907 177 892 183 896 b 322 945 262 922 250 919 b 414 957 354 957 379 973 b 423 953 418 955 423 953 b 440 940 425 953 436 945 b 442 857 464 916 462 881 b 354 691 430 843 387 760 b 260 471 319 617 296 562 b 124 71 192 295 152 179 b 77 10 116 38 107 19 "},"2":{"ha":650,"x_min":0,"x_max":0,"o":"m 589 47 b 376 -11 555 -4 457 -27 b 240 40 337 -3 300 11 b 179 69 198 61 192 64 b 164 75 171 72 165 75 b 151 63 164 75 158 69 b 95 14 131 42 107 22 b 20 22 70 -3 37 4 b 29 148 -13 54 -2 107 b 111 201 48 173 79 196 b 127 216 115 202 115 202 b 419 607 247 353 326 458 b 502 761 450 655 480 711 b 522 816 512 784 524 815 b 486 797 522 816 497 804 b 313 589 415 755 341 673 b 310 568 311 580 310 578 b 198 534 307 505 229 483 b 189 559 193 541 190 549 b 270 762 181 602 217 691 b 511 941 325 834 415 913 b 552 948 528 946 539 948 b 645 802 631 948 663 885 b 535 563 634 749 589 653 b 275 201 464 445 368 311 b 250 171 250 172 250 172 b 304 144 251 171 286 153 b 411 107 353 121 383 110 b 493 121 439 103 479 107 b 496 125 494 123 496 124 b 512 137 496 126 507 134 b 589 47 570 168 625 99 "},"3":{"ha":615,"x_min":0,"x_max":0,"o":"m 151 8 b 9 43 91 2 30 8 b 79 133 -16 85 17 150 b 156 132 101 127 123 127 b 270 167 199 139 237 151 b 421 299 328 196 384 245 b 460 396 442 329 455 363 b 405 509 468 455 449 482 b 351 554 372 529 362 538 b 385 684 316 608 353 651 b 490 828 425 726 475 803 b 340 780 445 826 365 805 b 236 813 305 744 244 763 b 256 869 233 837 244 857 b 500 949 292 906 431 954 b 613 811 572 942 635 896 b 491 619 601 765 537 667 b 480 606 485 612 480 607 b 486 601 480 606 483 604 b 581 447 538 566 571 519 b 581 385 583 437 583 396 b 523 233 574 330 555 281 b 151 8 448 121 321 27 "},"4":{"ha":674,"x_min":0,"x_max":0,"o":"m 371 34 b 261 70 339 -12 261 9 b 266 95 261 80 262 81 b 336 303 277 136 315 244 b 352 346 344 326 351 346 b 345 347 352 348 352 348 b 258 340 326 346 288 342 b 61 334 132 328 89 326 b 2 430 25 343 -11 378 b 84 559 9 460 29 490 b 340 875 180 679 267 786 b 380 927 353 891 365 906 b 423 963 397 951 402 957 b 487 868 473 975 521 919 b 417 777 473 847 447 813 b 162 463 341 685 256 578 b 157 453 157 456 156 454 b 223 459 158 453 194 456 b 363 471 298 465 314 467 b 400 475 383 473 399 474 b 507 758 400 475 478 681 b 551 878 532 824 545 860 b 586 925 561 905 566 915 b 674 868 631 947 676 910 b 631 742 673 855 670 847 b 536 490 602 665 541 502 b 558 483 531 478 537 482 b 622 480 600 485 609 484 b 658 406 644 471 669 443 b 599 363 650 381 631 364 b 512 359 563 362 534 360 l 486 358 l 477 334 b 409 145 448 255 432 209 b 385 69 398 114 389 84 b 371 34 378 45 377 43 "},"5":{"ha":774,"x_min":0,"x_max":0,"o":"m 264 8 b 9 69 170 -18 46 8 b 86 155 -17 111 24 184 b 105 142 93 152 101 147 b 216 122 117 129 179 113 b 421 321 316 144 400 222 b 405 409 428 355 422 393 b 368 422 397 418 387 422 b 266 397 341 424 309 416 b 200 372 230 381 213 375 b 110 472 140 357 86 401 b 167 594 117 493 126 512 b 279 831 218 697 241 743 l 291 860 b 323 929 287 891 301 918 b 368 936 336 935 337 935 b 572 926 458 937 503 930 b 707 918 674 921 643 919 b 729 917 720 918 726 918 b 732 800 789 900 786 819 l 724 797 l 700 797 b 404 814 668 797 486 810 b 281 551 366 727 330 648 b 271 529 275 539 271 529 b 278 531 271 529 275 530 b 543 385 420 574 525 510 b 545 329 545 373 546 342 b 458 133 539 261 501 184 b 264 8 411 78 342 30 "},"6":{"ha":676,"x_min":0,"x_max":0,"o":"m 548 934 b 622 888 583 934 610 915 b 542 808 640 844 596 786 b 536 810 540 809 537 810 b 510 796 534 810 519 802 b 466 757 496 786 486 777 b 325 581 429 720 360 633 b 224 381 282 517 251 454 l 247 405 b 444 551 318 476 387 527 b 677 452 559 601 668 561 b 661 342 680 420 674 381 b 390 20 624 227 509 72 b 248 -6 351 2 304 -13 b 127 57 193 1 157 25 b 49 4 112 31 95 -5 b 0 63 23 9 0 30 b 6 91 0 75 1 80 b 60 178 13 105 32 136 l 72 196 b 72 255 71 211 70 238 b 149 517 78 335 103 419 b 365 828 193 610 297 756 b 548 934 432 899 485 935 m 538 451 b 518 449 529 451 526 451 b 401 381 484 439 450 420 b 202 167 340 332 267 251 b 294 116 219 129 241 107 b 396 166 330 123 362 138 b 528 337 442 203 497 274 b 554 413 543 367 550 389 b 555 447 556 422 556 443 b 538 451 554 450 550 451 "},"7":{"ha":542,"x_min":0,"x_max":0,"o":"m 85 10 b 0 72 36 -12 -4 32 b 56 182 3 93 14 115 b 312 591 120 284 247 479 b 414 799 359 670 398 750 b 415 808 417 808 417 808 b 374 804 412 809 392 807 b 222 774 316 795 280 788 b 137 757 156 757 149 756 b 109 868 88 763 58 835 b 184 890 129 881 149 881 b 332 920 251 906 276 911 b 481 920 391 930 437 938 b 540 801 528 902 549 859 b 451 589 533 758 501 680 b 145 95 379 455 239 246 b 119 48 131 72 121 55 b 85 10 114 31 101 17 "},"8":{"ha":640,"x_min":0,"x_max":0,"o":"m 382 903 b 538 935 449 932 471 943 b 639 792 605 928 655 876 b 458 468 624 715 565 603 b 349 335 430 432 376 370 b 323 312 340 324 331 316 b 319 310 321 312 319 311 b 320 306 319 310 320 308 b 336 202 330 273 336 235 b 265 53 336 132 310 89 b 167 9 238 30 200 13 b 129 8 159 7 135 7 b 0 168 43 21 -4 78 b 103 384 5 261 50 333 b 152 426 120 401 137 415 b 134 574 140 467 129 518 b 222 786 140 644 176 730 b 382 903 261 834 322 877 m 519 814 b 412 783 485 811 446 800 b 256 571 342 747 267 671 b 256 524 255 561 255 534 b 268 465 258 502 266 465 b 291 456 273 464 290 455 b 313 482 291 456 301 468 b 385 571 346 522 359 538 b 469 702 410 604 452 675 b 519 814 496 745 513 784 m 193 302 b 169 277 192 302 176 286 b 128 199 149 254 136 229 b 127 134 120 171 120 139 b 146 129 131 131 138 129 b 213 185 178 129 208 157 b 204 270 217 203 213 242 b 194 302 200 283 194 302 l 193 302 "},"9":{"ha":613,"x_min":0,"x_max":0,"o":"m 47 5 b 2 81 19 12 -9 41 b 37 120 8 99 19 112 b 92 158 48 125 75 144 b 236 317 126 187 176 242 b 313 419 268 357 290 387 b 339 457 326 437 338 455 b 332 455 339 457 336 456 b 60 496 228 412 112 421 b 42 668 28 540 22 598 b 204 878 68 759 130 826 b 414 949 266 920 336 949 b 592 771 525 949 592 883 l 592 765 b 608 696 608 749 619 722 b 577 646 606 691 588 662 b 570 634 574 642 571 638 b 516 514 561 607 537 553 b 335 246 473 434 409 339 b 168 63 264 157 209 97 b 102 17 148 47 120 27 b 47 5 86 7 70 -1 m 415 828 b 273 777 375 828 321 809 b 156 624 221 742 173 692 b 218 550 142 566 164 545 b 429 663 300 559 373 611 b 470 759 464 696 468 696 b 415 828 472 812 459 827 "}," ":{"ha":417,"x_min":0,"x_max":0,"o":""},"!":{"ha":369,"x_min":0,"x_max":0,"o":"m 237 234 b 154 309 188 214 141 257 b 166 347 158 323 161 333 b 316 758 190 427 264 628 b 379 920 336 807 370 896 b 423 963 387 942 401 957 b 494 880 467 974 513 933 b 273 282 435 718 316 438 b 237 234 267 259 257 243 m 156 -10 b 84 69 105 -23 71 27 b 163 170 97 111 116 166 b 219 78 203 173 248 125 b 198 27 217 74 204 44 b 156 -10 191 10 175 -5 "},"\"":{"ha":378,"x_min":0,"x_max":0,"o":"m 248 555 b 183 650 189 539 155 601 b 257 786 214 702 253 779 b 300 825 268 808 277 819 b 374 750 338 835 387 802 b 308 624 368 727 324 654 b 280 576 293 596 285 582 b 248 555 273 567 260 558 m 76 555 b 11 650 17 539 -17 601 b 85 786 41 702 81 779 b 128 825 96 808 105 819 b 202 750 166 835 215 802 b 136 624 196 727 152 654 b 108 576 121 596 112 582 b 76 555 101 567 88 558 "},"#":{"ha":846,"x_min":0,"x_max":0,"o":"m 422 680 b 471 583 469 681 502 627 b 442 536 464 573 458 563 l 427 513 b 508 515 439 511 496 515 l 523 516 l 532 533 b 587 641 549 566 571 610 b 628 678 596 661 608 673 b 702 603 666 688 716 655 b 674 544 701 597 690 574 b 662 519 668 530 662 519 b 726 519 664 517 715 522 b 740 404 783 509 794 429 b 671 397 729 399 719 398 b 610 396 639 397 633 396 l 599 396 l 582 362 b 565 328 572 343 565 328 b 634 333 568 325 625 331 b 710 274 677 344 710 314 b 693 232 710 254 703 243 b 584 207 676 215 659 211 b 534 205 572 206 550 205 b 505 203 515 204 505 204 b 447 70 499 196 458 99 b 381 18 435 39 417 15 b 326 93 350 21 316 50 b 360 179 329 104 342 136 b 370 200 366 190 370 200 b 257 198 369 201 259 198 b 230 142 256 197 247 178 b 191 53 210 101 198 74 b 120 3 182 22 161 -5 b 70 63 94 8 70 30 b 79 99 70 73 72 80 b 112 179 86 121 97 145 l 119 193 l 116 193 b 95 192 114 193 105 193 b 2 190 37 188 13 187 b -14 303 -51 200 -66 278 b 28 310 -2 309 0 309 b 153 316 73 311 106 315 b 181 318 167 317 173 317 l 192 340 b 212 378 202 358 206 367 l 198 377 b 146 480 140 375 103 437 b 197 499 160 494 169 497 b 258 503 224 501 230 501 b 281 505 271 504 281 505 b 298 534 281 505 289 518 b 367 646 334 593 357 631 b 422 680 381 666 394 680 m 460 391 b 354 386 458 393 354 386 b 320 321 354 386 320 326 b 427 325 320 320 414 324 l 443 358 b 460 391 452 376 460 391 "},"$":{"ha":514,"x_min":0,"x_max":0,"o":"m 432 932 b 494 861 465 932 501 904 b 483 835 492 852 490 847 b 439 722 467 805 451 760 b 513 651 473 704 505 686 b 409 596 527 591 452 553 b 401 604 405 600 402 604 b 392 577 399 604 395 587 b 361 470 384 549 370 502 b 474 378 359 464 439 428 b 467 223 509 328 503 273 b 336 159 438 183 401 161 b 280 161 312 158 300 159 b 275 161 277 161 275 161 b 239 51 274 161 251 93 b 168 2 231 22 209 -6 b 119 64 139 8 117 34 b 130 112 119 71 120 75 b 155 185 134 127 155 185 b 102 205 155 186 104 205 b 20 256 66 221 41 237 b 80 359 -29 301 20 379 b 105 344 88 356 96 351 b 185 304 117 334 162 308 b 204 362 190 303 195 329 b 219 417 213 392 219 417 b 132 507 188 443 152 478 b 139 676 94 565 96 627 b 303 744 174 715 232 740 l 318 745 l 328 773 b 377 894 350 839 361 865 b 432 932 389 916 404 931 m 276 618 b 227 590 262 617 226 598 b 256 548 227 582 255 546 b 276 618 256 548 278 618 m 326 345 b 308 281 325 341 308 290 b 349 281 308 280 343 280 b 376 306 363 284 368 293 b 326 345 370 313 333 346 l 326 345 "},"%":{"ha":661,"x_min":0,"x_max":0,"o":"m 402 336 b 468 367 413 347 439 369 b 616 274 524 363 589 319 b 495 5 681 162 599 26 b 351 95 419 -11 370 39 b 402 336 324 172 355 289 m 480 239 b 468 128 468 214 454 156 b 511 162 476 112 508 156 b 480 239 528 199 507 223 m 157 821 b 228 857 167 843 195 861 b 352 713 299 848 342 784 b 353 665 354 701 354 675 b 209 490 343 592 274 515 b 38 608 115 456 43 514 b 149 814 33 692 94 787 b 157 821 155 817 156 817 m 232 699 b 193 698 222 695 204 694 b 162 633 180 682 167 657 b 160 605 160 625 159 609 b 183 613 162 600 180 611 b 232 699 207 629 235 665 m 48 17 b 1 90 20 24 -8 51 b 43 169 5 106 19 133 b 310 497 115 276 201 375 b 463 670 421 622 404 603 b 551 782 501 715 529 750 b 658 725 590 838 687 795 b 534 567 645 695 574 613 b 294 295 511 541 343 352 b 143 99 243 235 171 142 b 120 61 135 89 122 66 b 76 18 109 36 100 24 b 48 17 69 16 55 16 "},"&":{"ha":819,"x_min":0,"x_max":0,"o":"m 394 -54 b 318 4 352 -66 318 -34 b 342 67 318 30 331 44 b 404 178 365 112 373 126 b 418 201 412 190 418 200 b 401 195 418 201 410 198 b 293 163 353 178 331 171 b 101 239 199 141 114 155 b 141 364 96 275 110 320 b 279 498 172 408 218 452 b 321 527 295 509 317 525 b 312 533 322 528 322 528 b 259 715 254 564 218 633 b 391 842 286 770 336 814 b 520 860 422 858 474 873 b 529 858 523 859 526 859 l 539 874 b 601 972 563 915 592 961 b 636 996 611 984 623 993 b 701 902 684 1008 737 952 b 600 740 682 877 663 846 b 546 641 587 716 560 667 b 443 641 527 605 465 603 b 461 740 421 678 446 714 b 363 650 428 728 375 689 b 401 628 360 640 375 637 b 462 601 432 617 453 607 b 493 538 481 587 495 567 b 401 434 491 491 444 463 b 291 350 348 399 324 380 b 229 276 263 324 243 299 b 302 290 238 275 274 282 b 530 369 337 300 517 366 b 618 333 574 380 605 363 b 624 305 623 322 624 315 b 619 279 624 296 623 289 b 587 230 614 266 608 257 b 446 2 536 164 484 77 b 394 -54 430 -29 424 -46 "},"'":{"ha":203,"x_min":0,"x_max":0,"o":"m 76 555 b 11 650 17 539 -17 601 b 85 786 41 702 81 779 b 128 825 96 808 105 819 b 202 750 166 835 215 802 b 136 624 196 727 152 654 b 108 576 121 596 112 582 b 76 555 101 567 88 558 "},"(":{"ha":256,"x_min":0,"x_max":0,"o":"m 83 -49 b 5 160 50 -4 18 84 b 1 241 1 184 -1 217 b 23 390 4 281 12 337 b 188 888 62 576 114 763 b 345 1054 232 962 289 1022 b 452 1059 383 1076 419 1092 b 428 959 483 1027 470 974 b 358 911 406 951 382 934 b 273 790 324 877 298 840 b 142 362 226 693 180 547 b 124 255 134 328 128 289 b 123 190 122 237 121 204 b 182 23 129 145 157 51 b 127 -79 224 -24 178 -88 b 83 -49 111 -76 94 -64 "},")":{"ha":447,"x_min":0,"x_max":0,"o":"m 311 1046 b 389 838 344 1002 376 914 b 393 757 393 814 395 780 b 371 608 390 717 382 661 b 206 109 332 422 280 235 b 49 -56 162 36 105 -24 b -58 -61 11 -78 -25 -94 b -34 39 -89 -29 -76 24 b 36 87 -12 47 12 64 b 121 208 70 121 96 158 b 252 636 168 305 214 451 b 270 743 260 670 266 709 b 271 807 272 761 273 794 b 212 975 265 853 237 947 b 267 1077 170 1022 216 1086 b 311 1046 283 1073 300 1062 "},"*":{"ha":482,"x_min":0,"x_max":0,"o":"m 239 529 b 163 557 215 490 157 518 b 177 592 164 563 165 567 b 186 613 182 603 186 613 b 133 598 186 613 146 597 b 118 677 92 601 80 658 b 166 695 130 683 165 694 b 125 721 166 695 125 721 b 113 730 124 721 116 727 b 148 800 86 758 111 806 b 215 763 168 797 198 774 b 244 746 231 753 243 746 b 249 759 244 747 246 752 b 274 826 266 800 273 819 b 357 829 282 870 347 876 b 344 771 361 807 352 793 b 353 774 344 771 348 772 b 440 768 400 792 424 793 b 406 704 456 743 440 704 b 351 683 402 704 351 684 b 402 658 352 681 398 659 b 429 606 419 652 436 632 b 289 622 409 544 327 600 b 280 620 282 626 283 627 b 239 529 271 597 252 549 "},"+":{"ha":515,"x_min":0,"x_max":0,"o":"m 458 336 b 399 276 458 305 434 275 b 333 276 394 276 364 276 b 306 276 322 276 314 276 b 290 214 301 255 295 234 l 280 179 b 205 140 266 155 244 129 b 163 213 177 148 151 176 b 179 271 164 217 171 243 b 104 272 148 271 110 271 b 89 386 52 283 37 361 b 151 393 102 392 101 392 b 209 395 185 393 196 394 b 237 499 216 425 232 489 b 351 483 264 551 341 532 b 341 421 353 468 354 470 b 335 398 339 413 337 405 b 365 398 345 398 355 398 l 401 398 b 458 336 432 390 458 373 "},",":{"ha":203,"x_min":0,"x_max":0,"o":"m 76 -128 b 11 -33 17 -144 -17 -82 b 85 103 41 19 81 96 b 128 142 96 125 105 136 b 202 67 166 152 215 119 b 136 -59 196 44 152 -29 b 108 -107 121 -87 112 -101 b 76 -128 101 -116 88 -125 "},"-":{"ha":511,"x_min":0,"x_max":0,"o":"m 462 336 b 403 276 462 305 439 275 b 108 272 322 278 189 272 b 93 386 55 272 37 375 b 405 398 169 400 283 406 b 462 336 438 396 462 373 "},".":{"ha":121,"x_min":0,"x_max":0,"o":"m 48 24 b 1 74 24 29 5 49 b 7 111 -1 87 1 98 b 18 126 10 117 12 120 b 33 137 24 132 27 134 b 46 142 37 139 43 141 b 120 95 79 151 113 129 b 48 24 129 53 91 15 "},"/":{"ha":453,"x_min":0,"x_max":0,"o":"m 53 13 b -29 70 11 -3 -29 28 b 1 134 -29 98 -13 112 b 161 370 47 206 116 306 b 354 636 244 486 275 524 b 434 757 419 729 431 747 b 535 781 447 796 501 816 b 550 719 552 764 557 743 b 510 647 545 702 534 681 b 124 100 370 447 263 307 b 84 39 105 71 87 44 b 53 13 75 26 65 18 "},":":{"ha":267,"x_min":0,"x_max":0,"o":"m 132 407 b 85 469 100 414 84 442 b 129 525 86 494 101 518 b 204 479 162 534 197 512 b 132 407 212 436 174 398 m 133 24 b 87 86 101 30 86 59 b 131 142 88 111 102 135 b 205 95 164 151 198 129 b 133 24 214 53 175 15 "},";":{"ha":238,"x_min":0,"x_max":0,"o":"m 162 407 b 116 469 130 414 115 442 b 160 525 117 494 131 518 b 234 479 193 534 227 512 b 162 407 243 436 205 398 m 111 -128 b 46 -33 51 -144 18 -82 b 119 103 76 19 116 96 b 162 142 131 125 139 136 b 236 67 201 152 249 119 b 171 -59 230 44 187 -29 b 143 -107 156 -87 147 -101 b 111 -128 136 -116 122 -125 "},"<":{"ha":786,"x_min":0,"x_max":0,"o":"m 690 602 b 733 518 720 595 752 561 b 670 482 723 495 704 482 b 494 447 640 482 598 473 b 248 370 369 416 322 401 b 235 362 236 364 233 363 b 374 326 249 357 344 333 b 508 293 374 326 467 305 b 516 292 511 293 515 292 b 540 177 580 292 589 201 b 512 170 529 172 524 171 b 430 187 499 170 451 182 b 178 252 369 201 239 234 b 66 324 112 272 78 294 b 74 402 55 352 62 383 b 348 534 108 453 265 510 b 593 595 418 555 541 585 b 663 603 625 601 640 603 b 690 602 680 603 686 603 "},"=":{"ha":511,"x_min":0,"x_max":0,"o":"m 480 444 b 421 384 480 414 457 383 b 126 381 340 386 207 381 b 111 494 73 381 55 483 b 423 506 188 508 301 514 b 480 444 456 504 480 481 m 462 282 b 403 222 462 251 439 221 b 108 218 322 224 189 218 b 93 332 55 218 37 321 b 405 344 169 346 283 351 b 462 282 438 342 462 319 "},">":{"ha":786,"x_min":0,"x_max":0,"o":"m 110 171 b 66 256 79 178 47 213 b 130 292 77 279 96 292 b 306 326 159 292 202 300 b 551 404 430 358 478 373 b 565 411 564 409 566 411 b 426 448 551 416 455 441 b 291 480 426 448 332 469 b 283 482 288 481 285 482 b 260 597 220 482 210 572 b 288 603 270 602 275 603 b 370 586 300 604 349 591 b 622 521 430 572 560 540 b 734 449 687 502 722 479 b 725 372 744 421 737 391 b 451 239 692 321 535 264 b 206 179 381 219 259 189 b 136 170 174 173 160 171 b 110 171 120 170 114 170 "},"?":{"ha":539,"x_min":0,"x_max":0,"o":"m 264 266 b 165 332 220 221 143 267 b 221 453 174 358 200 414 b 398 700 272 547 318 602 b 487 817 458 773 468 786 b 503 847 493 827 504 847 b 475 849 502 848 486 850 b 321 792 424 847 364 825 b 280 741 301 776 284 759 b 179 708 272 693 214 675 b 160 757 166 721 160 736 b 196 839 160 785 181 820 b 428 966 247 901 338 952 b 624 883 526 982 606 953 b 627 857 627 875 627 873 b 625 832 627 843 627 840 b 582 739 619 804 606 774 b 488 618 559 705 547 690 b 341 418 406 519 373 474 b 280 293 316 375 290 321 b 264 266 276 281 272 274 m 172 -10 b 99 69 120 -23 86 27 b 178 170 112 111 132 166 b 234 78 218 173 263 125 b 213 27 232 74 219 44 b 172 -10 206 10 191 -5 "},"@":{"ha":926,"x_min":0,"x_max":0,"o":"m 516 695 b 562 693 533 695 549 694 b 737 648 628 688 688 672 b 896 498 811 613 864 563 b 875 177 944 403 936 280 b 821 109 860 152 843 130 b 695 43 783 72 739 49 b 595 73 658 39 623 49 b 540 169 571 93 551 127 b 528 227 535 186 528 220 b 528 229 528 228 528 229 b 514 222 527 229 521 226 b 349 152 447 182 401 163 b 224 181 295 141 252 151 b 200 250 206 199 199 221 b 216 309 201 270 205 287 b 312 413 234 346 270 385 b 425 460 349 439 384 453 b 457 461 435 461 440 461 b 503 456 480 461 482 461 b 593 407 540 447 569 431 b 620 367 606 394 614 382 b 626 344 623 359 626 350 b 627 337 626 341 626 339 b 640 306 632 330 637 317 b 646 263 642 296 644 286 b 673 166 652 213 661 179 b 689 166 676 163 679 163 b 777 252 720 175 755 209 b 804 332 791 279 799 304 b 804 388 806 346 806 375 b 750 494 798 431 781 464 b 721 518 740 505 733 510 b 557 572 677 548 626 565 b 469 571 541 573 487 573 b 294 519 406 565 346 547 b 173 411 244 493 202 456 b 122 267 146 370 128 318 b 122 213 121 255 121 225 b 154 105 126 173 137 138 b 192 51 166 83 178 66 b 328 -19 229 13 273 -10 b 489 -26 376 -27 438 -30 b 603 -8 534 -22 567 -17 b 647 6 624 -2 632 0 b 677 12 661 12 665 12 b 717 -6 694 11 706 6 b 734 -38 727 -15 732 -25 b 706 -100 739 -62 727 -87 b 664 -117 700 -104 679 -112 b 609 -131 651 -121 623 -128 b 411 -149 551 -144 473 -151 b 250 -125 345 -146 290 -138 b 111 -39 194 -106 151 -80 b 42 57 82 -11 62 18 b 2 192 21 100 8 143 b 1 271 0 209 -1 255 b 37 414 5 322 16 364 b 61 462 41 424 55 451 b 280 647 110 544 185 608 b 455 692 336 671 396 686 b 516 695 472 694 495 695 m 459 340 b 452 340 457 340 454 340 b 365 302 425 339 394 325 b 338 274 354 293 336 274 b 355 280 339 274 346 277 b 452 327 387 290 407 300 b 471 338 462 333 471 338 b 459 340 471 339 466 340 "},"A":{"ha":919,"x_min":0,"x_max":0,"o":"m 715 939 b 793 868 758 934 783 906 b 798 765 800 846 801 813 b 760 449 795 700 767 517 b 790 435 770 445 783 440 b 769 326 836 404 816 336 b 740 282 736 319 747 344 b 724 76 736 239 731 183 b 655 6 721 34 701 1 b 602 54 629 9 607 30 b 606 135 600 66 605 116 b 620 301 610 196 615 257 l 625 350 l 591 353 b 346 364 515 361 432 364 b 335 364 340 364 335 364 b 249 229 333 364 285 288 b 113 33 215 174 139 77 b 42 6 100 12 72 2 b 15 106 0 20 -11 67 b 139 283 40 141 113 240 b 187 361 142 288 187 356 b 185 362 187 361 186 361 b 169 466 143 376 135 438 b 246 483 185 478 195 480 l 267 484 l 277 499 b 467 763 362 627 415 701 b 604 899 518 825 564 871 b 715 939 646 929 672 944 m 678 802 b 457 548 616 756 545 675 b 414 485 442 526 414 486 b 435 484 414 485 417 485 b 639 471 513 483 573 478 l 642 493 b 678 798 653 572 679 736 l 678 802 "},"B":{"ha":1043,"x_min":0,"x_max":0,"o":"m 487 937 b 502 935 489 935 490 935 b 700 862 587 929 654 906 b 747 722 735 828 759 784 b 582 500 732 637 650 555 l 600 499 b 870 402 714 490 810 462 b 919 295 898 375 917 343 b 853 153 921 246 899 198 b 418 3 762 62 596 3 b 209 29 351 3 281 11 b 197 24 198 31 199 34 b 129 -27 192 -6 166 -33 b 83 70 84 -21 67 24 b 16 107 84 73 31 90 b 54 209 -18 144 4 203 b 116 190 70 210 97 198 b 342 792 153 310 268 618 b 344 799 343 795 344 799 b 316 793 344 800 332 797 b 232 757 286 785 249 775 b 132 779 197 722 144 743 b 145 842 124 801 128 823 b 397 931 180 882 284 919 b 408 936 403 931 403 932 b 487 937 428 954 467 956 m 485 814 b 463 768 480 814 474 793 b 362 519 428 683 395 604 b 355 498 358 508 355 499 b 378 511 355 498 357 499 b 467 566 409 528 443 549 b 614 708 536 614 590 667 b 628 750 624 725 628 738 b 485 814 628 794 541 814 m 555 379 b 317 344 477 379 360 363 b 293 333 310 341 295 337 b 258 235 291 331 274 282 b 231 149 249 209 230 150 b 291 136 232 148 271 139 b 470 126 350 126 400 121 b 727 206 570 134 662 163 b 791 270 758 227 781 250 b 786 315 801 289 800 300 b 555 379 743 360 645 378 "},"C":{"ha":796,"x_min":0,"x_max":0,"o":"m 550 92 b 83 75 398 -2 205 -46 b 38 512 -10 169 -25 329 b 135 712 60 578 97 652 b 347 923 198 808 269 879 b 467 964 386 946 429 960 b 637 888 550 972 603 939 b 637 769 667 845 664 796 b 534 820 595 727 523 766 b 514 839 535 829 521 836 b 438 832 491 848 463 842 b 302 731 395 816 347 780 b 136 415 227 648 162 525 b 325 128 95 246 136 96 b 567 254 389 139 505 198 b 655 252 591 275 630 280 b 656 171 676 229 676 194 b 550 92 642 156 596 121 "},"D":{"ha":996,"x_min":0,"x_max":0,"o":"m 529 924 b 712 929 582 932 659 937 b 943 768 830 911 909 856 b 954 603 960 722 964 661 b 774 269 934 492 872 375 b 429 34 686 172 562 81 b 251 0 370 14 321 3 b 198 -26 240 -13 222 -29 b 151 2 174 -23 163 -14 b 139 5 150 3 147 4 b 19 56 84 14 43 31 b 73 160 -23 99 13 172 b 127 132 95 155 104 139 b 162 125 136 129 157 125 l 166 125 l 173 150 b 308 607 216 301 282 526 b 351 736 316 632 353 735 b 348 734 351 736 349 735 b 251 804 304 694 223 738 b 367 880 262 829 301 854 b 412 897 378 884 405 891 b 416 904 413 897 415 900 b 512 921 434 937 481 949 m 619 811 b 502 794 582 810 540 803 b 301 157 428 601 366 381 b 293 125 296 140 293 125 b 305 127 293 125 299 126 b 528 218 383 139 470 180 b 801 523 639 289 747 404 b 835 630 819 561 829 595 b 619 811 857 769 761 818 "},"E":{"ha":840,"x_min":0,"x_max":0,"o":"m 234 3 b 60 32 158 -4 100 1 b 8 160 22 60 5 102 b 57 374 11 211 31 294 b 7 462 18 381 -16 416 b 87 501 20 489 49 499 b 105 504 103 502 105 502 b 220 759 143 596 174 665 b 233 787 227 774 233 786 b 230 790 233 787 232 789 b 214 835 220 800 213 820 b 254 889 216 858 230 877 b 297 901 262 893 291 901 b 305 908 298 901 302 904 b 385 910 328 928 365 929 b 435 909 387 909 388 909 b 791 893 567 909 676 903 b 825 892 797 893 812 892 b 894 856 867 891 881 883 b 866 776 908 827 895 791 b 825 770 854 771 851 770 b 606 783 797 771 652 782 b 443 787 541 786 511 787 b 371 785 381 787 372 786 b 313 672 368 782 335 718 b 236 499 301 648 235 500 b 257 499 237 499 246 499 b 497 490 314 497 423 490 b 549 492 534 490 538 490 b 624 433 591 502 624 473 b 511 368 624 378 575 369 b 397 371 473 368 442 369 b 189 379 319 375 192 380 b 176 343 184 377 180 357 b 134 189 154 281 142 236 b 140 126 129 161 122 132 b 229 125 156 121 190 121 b 531 168 300 133 447 158 b 593 170 553 171 583 172 b 612 56 653 161 662 80 b 541 47 599 50 561 49 b 234 3 461 37 292 9 "},"F":{"ha":871,"x_min":0,"x_max":0,"o":"m 280 907 b 378 920 299 941 348 952 b 389 911 382 917 385 914 l 583 911 b 802 912 690 911 789 912 b 885 917 850 914 878 915 b 959 845 924 927 972 892 b 927 804 955 826 943 812 b 843 792 913 797 894 794 b 608 789 796 790 762 789 b 408 789 518 789 428 789 l 372 788 l 361 788 b 230 441 311 667 275 568 b 631 442 315 440 542 439 b 711 438 657 443 697 445 b 744 367 733 427 753 401 b 701 324 738 346 721 330 b 435 319 690 321 609 320 b 225 319 352 319 258 319 l 190 319 b 124 77 158 219 134 131 b 122 63 122 71 122 65 b 7 37 122 0 33 -15 b 1 76 0 50 -1 59 b 62 321 5 116 28 212 b 34 334 51 324 42 327 b 35 419 10 358 14 398 b 83 438 48 432 60 435 l 101 439 b 230 790 151 584 172 642 b 217 887 197 811 188 858 b 280 907 231 900 244 905 "},"G":{"ha":1006,"x_min":0,"x_max":0,"o":"m 696 -50 b 637 30 652 -51 626 -12 b 675 149 642 49 675 150 b 663 141 674 149 669 145 b 525 57 624 112 572 81 b 321 -10 444 17 382 -3 b 1 250 130 -29 19 83 b 29 467 -7 333 9 406 b 325 840 80 623 193 765 b 576 910 405 884 470 908 b 692 877 626 911 674 908 b 701 868 693 875 697 871 b 761 727 740 835 763 794 b 698 615 760 674 740 624 b 632 703 648 605 607 657 b 638 754 638 712 644 737 b 603 787 632 768 617 781 b 495 778 588 792 536 788 b 337 702 444 766 384 737 b 128 365 243 631 152 506 b 274 110 104 220 141 115 b 434 149 321 109 371 120 b 616 258 498 177 568 219 b 673 308 637 275 674 307 b 607 304 673 308 628 306 b 474 284 552 301 498 297 b 386 330 437 265 393 288 b 459 408 378 376 419 398 b 704 430 504 419 625 430 b 843 380 774 430 818 420 b 829 214 877 329 850 268 b 755 1 807 159 765 40 b 696 -50 748 -27 731 -49 "},"H":{"ha":935,"x_min":0,"x_max":0,"o":"m 699 15 b 594 18 675 -24 614 -21 b 591 89 585 35 585 48 b 648 334 597 135 621 237 b 653 354 651 344 653 353 b 321 351 653 354 343 352 l 220 351 b 121 43 189 264 130 100 b 47 -7 116 13 88 -16 b 2 71 16 0 -7 28 b 86 336 10 110 49 243 b 87 341 86 338 87 340 b 82 343 87 342 85 342 b 67 456 31 353 17 430 b 121 469 80 462 94 466 b 134 470 128 469 134 470 b 201 658 134 470 166 560 b 253 812 215 697 242 778 b 269 870 262 841 267 859 b 372 906 276 917 334 945 b 390 858 385 892 391 878 b 348 712 389 839 378 801 b 284 528 320 628 312 607 b 264 473 273 497 266 478 b 691 478 343 471 678 477 b 811 866 732 610 776 740 b 860 942 821 903 822 932 b 918 925 880 947 903 941 b 930 842 936 906 940 883 b 823 492 920 798 843 557 b 827 488 823 491 824 490 b 858 435 844 480 858 460 b 784 368 858 393 826 377 l 779 349 b 722 128 761 290 735 189 b 708 47 713 90 710 68 b 699 15 707 33 704 24 "},"I":{"ha":351,"x_min":0,"x_max":0,"o":"m 77 7 b 1 76 31 -6 -4 30 b 168 628 13 201 118 487 b 247 831 180 661 224 776 b 291 922 276 903 280 910 b 387 851 337 968 419 913 b 273 561 373 822 304 646 b 224 421 263 534 235 454 b 124 77 175 281 137 149 b 122 63 122 71 122 65 b 77 7 122 34 99 13 "},"J":{"ha":932,"x_min":0,"x_max":0,"o":"m 946 950 b 1013 849 1000 950 1030 903 b 986 789 1008 831 1005 824 b 781 337 915 654 842 491 b 605 0 722 188 688 111 b 503 -117 570 -47 534 -88 b 247 -256 414 -199 329 -245 b 34 -151 146 -270 74 -217 b 35 132 -12 -73 -11 29 b 318 392 86 245 200 343 b 560 446 386 420 448 434 b 649 457 590 449 622 454 b 689 463 671 459 668 463 l 701 463 l 708 479 b 843 776 749 577 799 687 b 853 795 848 786 853 795 b 844 793 852 795 848 794 b 576 693 766 769 631 725 b 481 598 530 666 502 641 b 477 583 478 592 478 589 b 450 536 475 563 466 547 b 356 607 406 507 344 545 b 421 723 363 641 387 685 b 899 940 522 839 735 880 b 946 950 917 946 930 950 m 648 334 b 634 332 648 334 642 334 b 482 313 593 326 522 320 b 163 112 338 288 228 217 b 137 -86 125 52 105 -28 b 407 -39 197 -193 328 -108 b 523 94 443 -8 482 36 b 643 318 570 159 602 219 b 648 334 646 327 648 334 "},"K":{"ha":935,"x_min":0,"x_max":0,"o":"m 719 -18 b 329 188 535 -7 424 80 b 223 330 291 232 270 259 b 209 349 216 340 210 349 b 176 265 209 349 186 293 b 128 110 158 218 135 142 b 119 44 123 86 124 64 b 45 2 111 19 84 -8 b 0 70 17 10 -1 32 b 82 359 2 137 51 281 b 228 716 114 439 191 625 b 299 908 262 797 275 841 b 345 958 309 936 319 951 b 415 871 394 970 434 925 b 356 707 397 820 379 763 b 310 596 344 678 318 614 b 269 496 291 549 269 497 b 320 500 268 493 314 499 b 694 690 451 532 595 613 b 851 847 764 745 809 790 b 879 894 864 864 876 883 b 922 934 887 913 901 929 b 997 887 956 943 990 921 b 978 820 1001 869 996 851 b 886 698 959 785 921 736 b 474 424 778 586 633 487 b 349 382 427 405 382 390 b 337 379 343 381 337 379 b 363 340 336 379 350 358 b 575 142 419 263 494 180 b 742 104 624 118 679 104 b 815 63 783 104 805 94 b 762 -17 830 20 797 -14 b 719 -18 754 -18 731 -18 "},"L":{"ha":821,"x_min":0,"x_max":0,"o":"m 615 -56 b 219 -35 451 -58 378 -44 b 95 -42 178 -32 117 -30 b 7 37 45 -69 -24 -26 b 64 77 17 58 39 69 b 303 816 94 269 220 619 b 350 921 325 868 335 890 l 360 941 b 395 965 370 952 380 961 b 470 894 432 975 480 945 b 459 868 468 887 467 884 b 381 687 441 830 417 775 b 208 175 321 537 241 303 b 189 88 201 145 193 108 l 198 88 b 635 67 318 88 499 60 b 703 50 678 69 686 68 b 673 -52 737 16 717 -43 b 615 -56 664 -54 646 -55 "},"M":{"ha":1228,"x_min":0,"x_max":0,"o":"m 77 6 b 13 103 18 -12 -20 55 b 134 396 43 146 85 248 b 262 780 171 506 226 678 b 318 922 290 859 305 897 b 401 959 331 946 363 973 b 425 943 409 956 417 951 b 491 730 453 916 470 811 b 527 595 509 656 518 621 b 605 476 548 533 576 489 b 824 570 661 449 777 531 b 1099 879 889 626 1029 782 b 1152 949 1129 920 1147 944 b 1194 967 1162 959 1175 967 b 1256 908 1231 967 1253 942 b 1248 847 1258 883 1261 869 b 1222 789 1239 832 1232 811 b 1115 495 1186 704 1164 643 b 1025 179 1072 366 1055 307 b 1001 68 1013 133 1006 100 b 949 5 995 32 981 11 b 878 61 912 -2 880 28 b 881 87 878 68 878 72 b 912 232 887 124 901 186 b 1006 553 939 343 961 418 b 1018 591 1013 574 1018 591 b 833 424 1014 594 946 500 b 662 351 770 383 716 360 b 631 349 652 349 647 349 b 550 367 596 349 575 355 b 439 489 506 389 469 429 b 368 715 401 565 369 716 b 300 511 367 713 323 583 b 135 70 248 351 185 161 b 77 6 118 38 108 16 "},"N":{"ha":971,"x_min":0,"x_max":0,"o":"m 84 3 b 0 57 42 -15 2 17 b 3 84 0 66 0 68 b 66 303 12 127 25 174 b 243 788 112 448 181 631 b 291 899 259 830 283 885 b 335 932 300 916 315 928 b 362 944 345 933 352 941 b 439 895 401 954 430 926 b 459 698 444 876 451 809 b 470 567 465 622 467 604 b 535 222 488 395 503 318 b 564 150 549 181 554 168 b 574 134 568 142 571 139 b 609 175 586 145 596 157 b 739 474 648 229 709 388 b 869 871 784 604 826 737 b 890 929 878 896 888 925 b 1002 921 914 976 986 969 b 1001 878 1007 907 1006 895 b 930 664 990 848 943 705 b 822 347 886 523 857 440 b 729 136 783 244 756 182 b 585 12 698 84 650 18 b 462 83 536 8 492 33 b 427 163 449 104 440 126 b 355 506 389 271 372 352 b 340 662 347 573 345 595 b 337 695 339 680 337 695 b 316 641 337 696 335 691 b 181 262 266 514 217 375 b 122 58 140 132 130 99 b 84 3 116 30 108 13 "},"O":{"ha":803,"x_min":0,"x_max":0,"o":"m 587 965 b 723 899 649 964 691 936 b 783 724 763 854 783 804 b 736 495 783 632 764 571 b 593 244 699 398 657 324 b 340 25 516 147 444 79 b 144 -3 287 -1 207 -23 b 10 349 25 36 -21 193 b 182 712 34 473 108 624 b 217 777 184 740 189 751 b 421 921 275 829 366 893 b 587 965 479 950 517 966 m 649 792 b 555 841 631 828 608 850 b 416 776 518 835 463 807 b 359 694 428 734 402 694 b 345 690 354 694 353 694 b 236 582 299 667 267 628 b 169 454 209 540 189 503 b 124 211 129 356 115 279 b 213 110 131 160 154 103 b 340 166 261 116 305 143 b 554 398 424 224 503 317 b 661 708 602 474 655 592 b 649 792 663 745 659 772 "},"P":{"ha":838,"x_min":0,"x_max":0,"o":"m 343 936 b 437 954 357 966 408 984 b 441 952 438 953 440 952 b 457 954 442 952 449 953 b 829 880 607 979 756 956 b 879 753 863 845 879 803 b 708 461 879 634 786 524 b 236 285 580 358 434 304 b 218 284 227 284 219 284 b 215 279 217 284 216 282 b 148 66 174 160 165 140 b 104 8 140 34 130 17 b 28 89 49 -10 16 42 b 79 256 46 161 54 180 b 87 284 85 274 88 283 b 80 285 86 284 83 284 b 0 350 34 289 0 303 b 77 408 0 388 33 421 b 130 404 85 406 129 402 b 138 422 131 404 134 412 b 264 741 164 495 226 650 b 276 772 271 758 276 772 b 239 750 276 773 244 753 b 142 790 201 724 149 743 b 166 847 138 811 147 832 b 331 924 201 875 272 907 b 339 928 336 926 339 927 b 343 936 339 928 341 932 m 605 841 b 429 825 543 845 479 837 b 268 424 377 701 313 541 b 263 411 266 418 263 412 b 382 433 263 409 375 431 b 725 659 518 467 657 551 b 742 795 747 694 778 757 b 605 841 716 822 671 837 "},"Q":{"ha":803,"x_min":0,"x_max":0,"o":"m 451 922 b 732 791 591 929 685 882 b 645 275 822 622 725 396 b 463 80 593 198 530 130 b 448 69 455 75 449 70 b 450 54 447 68 447 67 b 633 -97 476 -39 519 -95 b 749 -79 667 -98 725 -92 b 824 -172 813 -43 867 -125 b 640 -219 794 -206 712 -220 b 429 -148 545 -219 479 -193 b 340 -1 388 -111 360 -65 b 319 2 335 13 335 8 b 190 -17 283 -10 236 -21 b 0 247 62 -7 -7 98 b 71 524 4 332 27 422 b 208 755 109 611 153 684 b 265 818 222 773 250 804 l 277 829 b 326 893 281 866 291 876 b 451 922 360 910 404 920 m 496 800 b 482 799 488 801 487 801 b 447 793 471 793 458 792 b 390 765 432 796 410 780 b 185 482 304 699 230 585 b 122 231 144 387 122 303 b 200 104 121 165 141 107 b 264 113 221 103 246 108 b 306 128 279 117 306 127 b 277 181 305 139 288 182 b 243 164 266 180 249 171 b 156 158 220 137 182 135 b 161 255 124 186 135 233 b 272 302 190 281 225 300 b 409 202 346 306 387 258 b 412 195 410 198 412 195 b 450 229 413 195 438 217 b 646 613 540 316 636 474 b 555 791 652 703 624 772 b 496 800 537 796 515 799 "},"R":{"ha":863,"x_min":0,"x_max":0,"o":"m 343 936 b 437 954 359 964 408 984 b 457 954 441 950 445 952 b 829 880 607 979 756 956 b 879 753 863 845 879 803 b 708 461 879 634 786 524 b 326 297 601 376 477 322 b 569 119 382 250 498 164 b 679 64 610 93 653 71 b 721 -7 704 57 729 29 b 655 -55 715 -34 690 -59 b 514 9 629 -51 567 -23 b 202 242 411 73 283 170 b 148 66 173 158 163 131 b 104 8 140 34 130 17 b 28 89 49 -10 16 42 b 79 256 46 161 54 180 b 80 285 87 280 93 284 b 0 350 34 289 0 303 b 77 408 0 388 33 421 b 138 422 111 399 128 398 b 264 741 164 495 226 650 b 276 772 271 758 276 772 b 239 750 276 773 244 753 b 142 790 201 724 149 743 b 166 847 138 811 147 832 b 324 922 200 874 268 902 b 343 936 336 926 338 928 m 605 841 b 429 825 543 845 479 837 b 268 424 377 701 313 541 b 382 433 256 393 359 427 b 725 659 518 467 657 551 b 742 795 747 694 778 757 b 605 841 716 822 671 837 "},"S":{"ha":928,"x_min":0,"x_max":0,"o":"m 756 838 b 744 777 761 816 760 793 b 666 769 719 760 689 751 b 618 816 645 784 635 813 b 532 809 597 820 570 818 b 368 674 466 794 351 750 b 404 608 372 656 386 631 b 616 447 457 543 516 511 b 787 177 710 388 828 301 b 385 -14 743 44 563 -33 b 121 78 285 -3 217 19 b 15 156 75 106 29 141 b 16 238 -5 179 -5 215 b 59 257 27 250 43 257 b 104 239 78 257 92 250 b 346 113 165 184 283 124 b 674 227 453 95 674 120 b 630 288 674 242 657 265 b 526 360 607 308 584 324 b 289 560 423 425 344 477 b 248 721 257 608 235 656 b 507 928 273 838 391 901 b 756 838 617 953 736 934 "},"T":{"ha":507,"x_min":0,"x_max":0,"o":"m 106 5 b 59 98 64 11 45 47 b 127 307 71 147 106 248 b 268 714 161 404 222 581 b 295 790 292 783 295 790 b 66 782 285 801 71 786 b -4 879 9 755 -56 828 b 58 907 10 893 29 902 b 554 911 98 915 530 913 b 624 908 586 910 596 910 b 647 909 637 907 640 907 b 719 839 684 915 727 887 b 546 790 707 774 621 785 b 425 790 524 792 452 791 b 240 263 403 737 276 362 b 174 58 229 230 203 139 b 106 5 163 26 142 0 "},"U":{"ha":771,"x_min":0,"x_max":0,"o":"m 448 -21 b 408 67 409 -11 395 23 b 425 125 412 79 421 115 b 424 126 425 127 425 127 b 408 112 423 125 416 119 b 174 -4 348 62 245 3 b 11 280 15 -22 -20 128 b 199 812 45 457 140 649 b 266 934 217 863 214 921 b 343 869 306 944 343 912 b 340 847 343 859 343 857 b 296 739 337 835 309 776 b 142 308 251 615 175 427 b 125 144 129 258 114 193 b 171 118 130 117 136 111 b 260 157 191 122 222 136 b 365 238 292 174 333 206 b 547 534 429 300 490 422 b 695 812 596 630 648 724 b 742 894 707 834 738 889 b 843 889 768 932 825 922 b 847 836 853 872 854 854 b 813 764 846 831 830 799 b 548 114 692 522 615 364 b 517 10 531 53 521 19 b 448 -21 507 -9 482 -30 "},"V":{"ha":756,"x_min":0,"x_max":0,"o":"m 161 -16 b 0 232 42 8 4 74 b 131 810 -4 416 74 644 b 155 884 145 852 151 866 b 274 881 170 943 261 944 b 270 841 276 869 275 854 b 124 287 213 682 140 469 b 131 149 120 242 123 184 b 176 105 138 120 148 105 b 202 112 185 105 191 107 b 339 232 246 133 289 171 b 673 757 452 371 589 590 b 727 886 695 801 710 836 b 751 929 736 913 740 920 b 850 881 789 960 850 935 l 850 871 l 843 849 b 723 593 814 765 789 711 b 481 217 647 456 568 333 b 378 93 439 161 409 124 b 264 7 340 55 303 27 b 195 -16 241 -5 218 -13 b 161 -16 189 -17 164 -17 "},"W":{"ha":1240,"x_min":0,"x_max":0,"o":"m 198 -11 b 42 38 133 -30 73 2 b 1 237 5 82 -6 148 b 22 383 5 286 12 331 b 169 851 52 525 106 690 b 219 910 180 881 189 903 b 294 840 256 920 304 890 b 272 781 291 827 277 793 b 129 286 200 598 148 421 b 130 125 122 239 113 161 b 263 192 159 64 234 158 b 398 382 302 237 342 294 b 522 585 460 479 490 527 b 626 789 572 674 614 755 b 668 873 639 824 633 856 b 759 812 713 895 757 861 b 746 692 760 786 757 757 b 683 211 725 568 681 320 b 701 105 684 160 691 125 b 722 109 711 106 715 106 b 780 151 739 117 761 134 b 990 455 838 208 934 362 b 1163 761 1021 508 1122 686 b 1210 869 1183 797 1198 833 b 1237 938 1220 899 1215 918 b 1338 878 1280 977 1346 938 b 1239 647 1329 810 1280 720 b 1007 252 1152 493 1090 383 b 910 114 968 193 935 145 b 740 -12 856 47 790 -2 b 706 -16 727 -15 722 -16 b 594 47 651 -16 617 8 b 583 446 545 131 562 335 b 554 401 574 437 563 416 b 401 170 493 302 439 221 b 265 23 351 103 300 48 b 198 -11 244 8 220 -4 "},"X":{"ha":954,"x_min":0,"x_max":0,"o":"m 108 -14 b 8 -4 73 -42 28 -38 b 27 78 -10 28 5 63 b 180 221 43 88 155 200 b 494 495 304 331 383 400 b 387 820 478 544 398 785 b 382 890 380 844 368 862 b 445 922 391 909 417 927 b 507 845 483 916 494 885 b 594 583 513 825 593 584 b 664 646 594 583 641 626 b 940 905 840 808 928 891 b 979 934 955 923 961 929 b 1054 863 1017 943 1064 913 b 968 762 1049 841 1038 828 b 663 482 877 677 764 572 l 635 457 l 645 428 b 739 152 678 330 708 239 b 765 73 757 101 764 80 b 705 5 771 40 745 5 b 642 62 664 5 653 31 b 558 307 606 168 601 178 b 536 370 540 358 538 363 b 191 65 419 268 305 176 b 108 -14 138 12 119 -5 "},"Y":{"ha":733,"x_min":0,"x_max":0,"o":"m 452 26 b 343 73 417 -27 326 5 b 526 560 386 247 453 405 b 528 567 528 565 528 567 b 505 545 527 566 521 561 b 228 317 422 463 309 365 b 130 274 185 291 161 280 b 106 272 121 272 117 272 b 18 324 63 272 35 293 b 15 541 -5 367 -6 437 b 135 888 35 643 89 794 b 189 954 150 919 154 945 b 264 883 233 965 271 927 b 252 851 262 871 261 868 b 207 749 238 823 225 793 b 127 479 165 648 141 565 b 122 398 122 447 121 421 b 205 447 144 408 175 426 b 344 560 240 471 299 519 b 665 890 447 655 569 779 b 735 961 704 934 723 954 b 813 948 760 976 794 970 b 830 904 822 936 829 924 b 804 839 830 886 828 882 b 588 401 709 667 656 559 b 465 58 531 269 502 187 b 452 26 458 37 457 34 "},"Z":{"ha":1026,"x_min":0,"x_max":0,"o":"m 73 -21 b 14 77 14 -34 -21 37 b 54 110 26 90 34 104 b 100 138 65 114 70 116 b 224 237 130 159 161 184 b 695 665 327 324 584 559 b 823 782 745 714 784 748 l 709 783 b 435 789 581 783 529 785 b 306 801 369 793 324 797 b 271 906 263 812 231 866 b 333 920 285 919 308 929 b 479 909 345 916 385 913 b 979 908 565 905 887 903 b 1061 847 1028 911 1061 894 b 1019 782 1061 812 1041 798 b 781 579 946 730 878 672 b 379 210 660 463 508 325 b 270 116 371 203 270 116 b 304 116 270 115 285 116 b 658 116 391 119 567 120 b 792 117 672 115 788 116 b 868 72 834 129 862 100 b 818 -3 879 32 849 4 b 661 -6 802 -7 730 -8 b 124 -14 517 0 245 -3 b 73 -21 109 -16 82 -19 "},"[":{"ha":322,"x_min":0,"x_max":0,"o":"m 255 -112 b 50 -99 186 -113 99 -107 b 2 -24 16 -92 8 -58 b 6 29 -1 -4 2 12 b 168 564 54 231 106 388 b 305 952 215 694 258 824 b 320 994 314 979 316 981 b 351 1034 324 1011 336 1027 b 556 1046 382 1049 515 1044 b 609 940 621 1049 657 980 b 452 920 581 917 511 920 l 422 920 l 408 879 b 204 299 339 690 273 492 b 141 86 169 201 158 163 b 127 16 134 53 126 16 b 170 12 127 15 146 14 b 251 9 203 10 220 10 l 289 9 b 332 -79 323 -3 354 -36 b 295 -110 325 -94 311 -105 b 255 -112 289 -112 288 -112 "},"\\":{"ha":453,"x_min":0,"x_max":0,"o":"m 53 795 b 84 769 65 790 75 782 b 124 708 87 764 105 737 b 510 161 263 501 370 361 b 550 89 534 127 545 106 b 535 27 557 65 552 44 b 434 52 501 -8 447 13 b 354 172 431 61 419 79 b 161 438 275 284 244 322 b 1 675 116 503 47 602 b -29 738 -13 696 -29 711 b 53 795 -29 780 11 811 "},"]":{"ha":521,"x_min":0,"x_max":0,"o":"m 229 1046 b 435 1032 298 1046 386 1041 b 479 905 480 1024 490 953 b 316 370 430 703 378 546 b 180 -18 270 239 226 110 b 165 -60 170 -45 168 -48 b 133 -101 160 -78 148 -93 b -72 -112 103 -116 -31 -111 b -125 -6 -137 -115 -172 -46 b 33 14 -97 17 -26 14 l 62 14 l 77 55 b 280 635 145 244 211 442 b 343 848 315 733 327 771 b 357 918 351 881 358 918 b 195 925 319 925 226 925 b 152 1013 160 934 131 969 b 190 1044 159 1027 173 1039 b 229 1046 195 1046 196 1046 "},"^":{"ha":621,"x_min":0,"x_max":0,"o":"m 491 573 b 440 618 465 579 447 594 b 431 660 438 624 436 635 b 420 726 428 674 424 705 b 409 799 415 762 411 787 b 400 833 406 816 401 833 b 283 726 398 833 317 760 b 199 641 255 699 224 668 b 171 611 176 618 173 614 b 93 592 153 589 120 581 b 57 628 77 598 63 612 b 67 687 49 648 52 668 b 189 813 76 699 147 772 b 302 916 220 843 274 892 b 389 970 336 946 363 962 b 423 974 399 973 414 975 b 455 966 433 973 446 970 b 524 878 489 951 508 927 b 552 734 535 845 538 826 b 567 649 557 702 566 651 b 568 627 568 647 569 633 b 520 574 565 601 546 581 b 491 573 512 572 498 572 "},"_":{"ha":650,"x_min":0,"x_max":0,"o":"m 614 31 b 555 -30 614 0 590 -30 b 72 -33 422 -28 204 -33 b 57 80 19 -33 0 74 b 557 93 179 95 362 105 b 614 31 589 91 614 68 "},"`":{"ha":203,"x_min":0,"x_max":0,"o":"m 64 814 b 93 797 75 811 87 804 b 118 759 97 793 104 781 b 176 659 132 735 171 678 b 110 600 188 618 145 592 b 72 631 90 605 82 614 b 7 738 69 637 34 697 b 64 814 -18 777 12 826 "},"a":{"ha":704,"x_min":0,"x_max":0,"o":"m 248 636 b 363 550 307 637 339 604 b 380 499 371 533 378 510 b 383 494 380 494 380 494 b 439 430 414 489 438 464 b 424 371 440 415 437 405 b 358 183 394 290 360 218 b 395 121 355 147 361 121 b 441 136 410 121 422 125 b 530 210 465 148 493 172 b 703 399 608 287 643 322 b 784 398 721 420 759 421 b 750 263 828 353 778 298 b 597 105 711 216 654 159 b 478 18 554 62 516 35 b 372 1 450 5 413 -5 b 236 163 287 14 244 72 b 157 83 212 136 183 106 b 20 13 101 34 61 13 b -85 146 -52 13 -85 70 b -81 195 -85 168 -84 177 b 18 435 -72 251 -17 374 b 135 587 55 503 90 548 b 248 636 169 616 201 636 m 244 513 b 237 510 243 513 242 513 b 154 426 205 495 175 458 b 53 228 123 379 70 281 b 36 143 41 192 38 173 b 246 376 120 197 170 283 b 271 408 254 387 266 401 l 281 420 b 259 472 267 434 259 448 b 244 513 259 483 252 513 "},"b":{"ha":718,"x_min":0,"x_max":0,"o":"m 219 953 b 313 879 268 998 342 939 b 264 765 304 861 275 792 b 193 590 247 724 205 620 b 132 416 174 538 135 427 b 149 430 132 414 135 417 b 318 556 206 486 265 530 b 459 591 369 581 408 595 b 598 386 554 585 610 502 b 267 10 580 200 432 53 b 48 37 186 -10 118 2 l 35 44 b -50 17 19 25 -12 -1 b -82 55 -65 25 -75 36 b -66 171 -90 77 -88 90 b 186 893 9 452 78 641 b 219 953 205 938 208 943 m 459 469 b 431 469 452 471 437 470 b 356 439 410 464 382 453 b 139 226 276 394 192 306 b 94 150 121 198 93 151 b 120 138 95 149 110 142 b 334 173 200 105 264 127 b 478 404 406 219 470 299 b 459 469 480 436 472 465 "},"c":{"ha":657,"x_min":0,"x_max":0,"o":"m 141 0 b -68 252 -16 -21 -107 95 b 144 564 -41 363 56 496 b 323 648 200 607 250 639 b 475 531 411 660 471 611 b 388 415 477 472 447 403 b 348 507 344 424 330 469 b 353 527 353 516 353 518 b 205 456 304 534 237 484 b 74 285 151 411 105 349 b 46 204 59 254 51 232 b 142 124 33 135 72 109 b 192 139 159 127 172 131 b 464 284 273 171 384 236 b 577 355 509 311 535 329 b 657 405 605 373 652 401 b 752 332 708 439 784 397 b 671 268 743 315 730 304 b 615 235 660 260 624 241 b 238 26 513 168 352 72 b 141 0 205 13 172 4 "},"d":{"ha":701,"x_min":0,"x_max":0,"o":"m 554 965 b 690 758 662 968 704 871 b 401 168 665 568 505 294 b 454 57 413 127 425 77 b 480 7 468 47 480 30 b 407 -53 480 -29 448 -62 b 366 -28 394 -50 381 -42 b 304 73 343 -7 320 33 b 137 -14 249 28 191 -4 b -1 20 79 -25 31 -5 b 5 409 -111 108 -71 288 b 53 473 19 430 33 449 b 203 572 104 531 153 563 b 245 572 213 574 235 573 b 256 583 258 570 254 569 b 457 933 277 733 349 868 b 554 965 490 953 514 965 m 562 844 b 529 834 549 843 543 842 b 372 530 438 786 384 659 b 371 366 368 485 367 420 b 374 334 373 338 374 334 b 382 347 374 334 377 340 b 521 608 433 424 486 523 b 567 759 542 660 560 717 b 562 844 572 791 573 821 m 245 442 b 212 448 232 446 227 455 b 57 212 145 420 72 301 b 91 107 48 162 56 121 b 121 107 100 104 109 104 b 255 191 156 114 203 143 b 268 205 266 201 268 204 b 247 435 256 254 247 373 b 245 442 247 440 246 441 "},"e":{"ha":565,"x_min":0,"x_max":0,"o":"m 281 613 b 389 425 381 614 436 519 b 250 284 362 372 312 321 b 96 220 200 254 141 230 b 57 219 82 217 66 217 b 55 211 57 219 56 215 b 121 118 48 154 65 118 b 169 124 138 118 148 119 b 324 194 207 134 269 161 b 560 392 391 234 489 304 b 652 403 580 420 624 429 b 671 358 664 391 671 375 b 651 311 671 342 666 329 b 388 90 569 210 498 162 b 235 17 337 61 282 34 b 97 -3 196 3 151 -9 b -56 113 27 4 -32 50 b -6 395 -91 207 -45 324 b 148 568 35 467 84 526 b 281 613 187 594 227 613 m 109 350 b 126 357 114 352 118 354 b 258 447 185 382 227 411 b 284 489 270 461 282 481 b 281 492 285 492 285 492 b 196 453 248 492 222 473 b 109 350 164 427 129 385 "},"f":{"ha":407,"x_min":0,"x_max":0,"o":"m 207 805 b 274 844 222 830 239 850 b 326 781 306 839 328 812 b 311 743 325 767 322 759 b 143 427 253 653 190 533 b 92 311 125 389 92 313 b 221 319 92 303 212 317 b 398 398 287 332 364 362 b 433 424 416 417 420 420 b 505 337 486 442 533 385 b 299 213 475 285 376 235 b 121 188 238 195 187 188 b 89 187 92 188 88 188 b 117 -28 108 123 117 52 b 83 -229 117 -106 108 -160 b -41 -405 53 -310 6 -376 b -148 -406 -77 -427 -119 -426 b -188 -352 -166 -395 -180 -375 b -190 -201 -200 -317 -200 -274 b -81 199 -169 -59 -130 63 b -69 234 -74 218 -69 234 b -72 239 -69 234 -70 237 b -71 321 -86 261 -83 300 b -23 350 -62 336 -44 348 l -18 364 b 207 805 55 539 122 669 m -7 35 b -44 -93 -10 34 -31 -40 b -64 -189 -53 -130 -58 -152 b -74 -270 -71 -225 -76 -270 b -69 -262 -74 -270 -72 -267 b -5 -39 -29 -202 -7 -133 b -7 35 -5 -14 -7 36 "},"g":{"ha":717,"x_min":0,"x_max":0,"o":"m 397 585 b 427 592 406 589 415 592 b 490 508 473 592 501 553 b 466 435 488 498 479 471 b 386 197 445 378 412 277 b 375 165 380 179 375 165 b 444 183 376 164 426 177 b 678 340 540 214 620 267 b 707 383 689 353 702 372 b 782 415 720 407 748 427 b 822 344 807 407 831 380 b 795 294 819 333 811 318 b 561 99 744 216 653 141 b 325 28 495 69 430 51 b 321 22 324 28 323 26 b 269 -98 312 0 278 -78 b 264 -108 266 -103 264 -108 b 225 -186 264 -109 232 -172 b 120 -348 186 -258 156 -305 b -25 -463 75 -401 36 -438 b -179 -459 -80 -486 -134 -486 b -255 -243 -237 -424 -279 -340 b -207 -138 -246 -209 -229 -171 b 131 99 -130 -23 -14 49 b 231 130 163 110 223 128 b 237 140 234 130 234 130 b 270 235 249 173 271 235 b 257 222 270 236 264 229 b 85 95 211 170 152 112 b 51 91 70 91 66 91 b -57 238 -28 91 -67 152 b 102 541 -44 354 32 471 b 221 625 143 583 185 612 b 348 626 263 641 309 644 b 397 585 369 616 384 602 m 307 481 b 286 516 307 498 304 517 b 227 490 268 515 249 507 b 97 326 175 450 128 389 b 65 234 81 292 70 261 b 64 216 64 225 63 216 b 70 219 64 216 67 218 b 211 354 115 242 170 305 b 302 470 243 392 267 425 b 307 481 307 476 307 477 m 173 -15 b -94 -190 57 -56 -26 -103 b -137 -273 -114 -215 -130 -246 b -110 -358 -145 -308 -133 -350 b -87 -356 -107 -359 -96 -358 b 19 -278 -47 -347 -8 -310 b 173 -15 74 -215 132 -105 "},"h":{"ha":763,"x_min":0,"x_max":0,"o":"m -70 -21 b -119 54 -100 -16 -129 13 b 3 409 -105 112 -33 313 b 168 814 56 549 118 673 b 226 942 198 889 215 927 b 279 971 239 961 256 971 b 329 877 319 971 359 921 b 287 786 321 866 307 835 b 137 418 240 668 188 553 b 327 535 186 464 255 520 b 462 453 400 550 447 510 b 457 285 471 418 470 369 b 443 155 449 231 443 206 b 447 114 443 129 444 127 b 507 146 463 116 480 126 b 716 360 568 194 659 293 b 785 431 748 396 777 426 b 876 395 825 455 866 428 b 876 364 878 386 878 373 b 816 289 870 343 834 310 b 688 149 758 223 743 206 b 613 77 675 136 624 87 b 487 -2 564 33 522 7 b 361 28 431 -17 388 1 b 322 154 333 56 321 93 b 337 307 322 195 323 212 b 346 393 344 351 346 370 b 346 413 346 404 346 413 b 293 388 344 416 313 401 b 48 108 194 322 112 215 b -13 0 26 71 15 39 b -70 -21 -24 -13 -45 -26 "},"i":{"ha":350,"x_min":0,"x_max":0,"o":"m 120 632 b 166 727 120 652 128 668 b 244 773 183 753 208 779 b 276 669 288 766 313 704 b 182 571 247 642 237 572 b 156 576 176 571 161 574 b 120 632 134 587 120 609 m 176 33 b -23 4 123 -5 45 -38 b -79 99 -55 24 -74 56 b 38 474 -83 250 -17 370 b 104 512 50 497 71 517 b 146 418 150 505 167 458 b 51 189 89 294 82 302 b 41 127 43 159 41 147 b 45 105 41 111 42 106 b 93 124 54 103 74 111 b 339 383 197 202 285 314 b 437 395 357 414 406 428 b 447 327 451 380 459 351 b 344 196 433 299 399 257 b 176 33 270 114 217 62 "},"j":{"ha":382,"x_min":0,"x_max":0,"o":"m 33 474 b 99 512 45 497 66 517 b 140 418 145 505 162 458 b 51 197 118 346 77 276 b 41 165 45 179 40 165 b 109 183 42 164 91 177 b 344 340 206 214 285 267 b 373 383 354 353 367 372 b 448 415 385 407 412 427 b 487 344 472 407 496 380 b 461 294 485 333 476 318 b 227 99 409 216 318 141 b -9 28 160 69 95 51 b -13 22 -11 28 -12 26 b -66 -98 -22 0 -56 -78 b -71 -108 -69 -103 -71 -108 b -110 -186 -71 -109 -102 -172 b -215 -348 -149 -258 -179 -305 b -360 -463 -259 -401 -298 -438 b -514 -459 -415 -486 -469 -486 b -589 -243 -571 -424 -613 -340 b -542 -138 -581 -209 -564 -171 b -204 99 -465 -23 -349 49 b -104 130 -172 110 -112 128 b -98 140 -101 130 -101 130 b -75 208 -90 160 -83 183 b 33 474 -31 315 -8 396 m -162 -15 b -429 -190 -277 -56 -361 -103 b -471 -273 -449 -215 -465 -246 b -445 -358 -480 -308 -468 -350 b -422 -356 -442 -359 -431 -358 b -315 -278 -382 -347 -343 -310 b -162 -15 -261 -215 -203 -105 m 103 632 b 149 727 103 652 111 668 b 227 773 166 753 191 779 b 259 669 272 766 296 704 b 165 571 230 642 220 572 b 139 576 159 571 144 574 b 103 632 117 587 103 609 "},"k":{"ha":633,"x_min":0,"x_max":0,"o":"m 291 974 b 339 872 342 976 375 915 b 314 834 334 867 323 849 b 151 464 265 750 185 554 b 372 609 230 549 304 602 b 499 456 461 618 514 550 b 398 286 491 401 454 338 b 225 175 354 245 286 201 b 212 169 218 172 213 169 b 241 162 212 168 226 165 b 448 187 319 148 399 161 b 569 296 491 210 533 247 b 626 383 596 332 613 358 b 637 404 630 392 635 401 b 744 381 671 446 732 424 b 744 350 746 372 746 359 b 698 268 740 336 720 301 b 413 46 628 163 536 74 b 58 99 275 15 153 50 b 51 102 54 101 51 102 b 20 44 49 100 26 58 b 14 17 17 37 17 33 b -55 -33 8 -14 -23 -38 b -106 46 -88 -27 -114 3 b -73 168 -101 69 -91 109 b 157 792 -2 414 55 573 b 230 929 192 867 206 892 b 291 974 246 953 258 973 m 379 487 b 352 477 376 487 362 482 b 197 329 298 450 241 384 b 160 280 184 313 160 281 b 175 285 160 279 165 281 b 344 407 239 314 306 360 b 377 463 358 424 371 447 b 379 487 380 473 381 487 "},"l":{"ha":436,"x_min":0,"x_max":0,"o":"m 89 -13 b -53 111 1 -25 -43 37 b -53 180 -55 126 -55 160 b 37 510 -45 258 -15 371 b 218 916 79 626 158 789 b 292 974 234 950 249 981 b 342 898 327 968 353 935 b 300 806 341 893 324 856 b 79 233 211 619 122 427 b 68 142 70 194 67 171 b 70 116 68 125 68 123 b 72 107 71 111 72 108 b 95 113 73 107 86 110 b 333 290 180 145 261 217 b 430 391 379 335 423 380 b 493 416 441 407 464 422 b 522 311 539 406 556 353 b 371 156 504 288 414 196 b 269 72 341 128 302 96 b 89 -13 201 24 136 -7 "},"m":{"ha":1047,"x_min":0,"x_max":0,"o":"m 377 -22 b 286 37 328 -33 295 3 b 286 126 281 59 281 91 b 335 305 293 170 305 213 b 382 459 365 395 371 420 b 366 448 383 462 381 460 b 188 275 315 407 259 353 b 6 35 123 203 60 122 b -33 -4 -6 16 -14 3 b -82 -13 -47 -10 -64 -17 b -129 38 -108 -6 -125 13 b -122 85 -130 49 -128 60 b 23 453 -97 175 -18 371 b 84 550 49 507 66 533 b 186 495 126 590 198 555 b 170 465 183 483 179 475 b 126 387 160 454 145 426 b 391 603 194 458 310 576 b 508 552 450 623 494 594 b 505 450 517 527 516 503 b 449 261 496 407 486 375 b 424 183 436 221 431 207 b 571 347 468 235 541 321 b 665 391 608 380 634 392 b 734 338 700 389 724 366 b 737 245 742 317 742 297 b 737 144 730 189 730 166 b 769 127 742 127 750 120 b 818 155 785 133 802 142 b 1029 378 887 211 971 302 b 1096 422 1046 400 1059 424 b 1145 331 1137 421 1170 373 b 1011 173 1121 290 1021 184 b 898 63 974 133 930 89 b 807 11 865 37 839 22 b 642 62 739 -11 675 12 b 611 202 619 98 607 148 b 611 214 611 209 611 214 b 440 16 611 215 468 43 b 377 -22 417 -7 401 -16 "},"n":{"ha":763,"x_min":0,"x_max":0,"o":"m 443 155 b 447 114 443 129 444 127 b 507 146 463 116 480 126 b 716 360 568 194 659 293 b 785 431 748 396 777 426 b 876 395 825 455 866 428 b 876 364 878 386 878 373 b 816 289 870 343 834 310 b 688 149 758 223 743 206 b 613 77 675 136 624 87 b 487 -2 564 33 522 7 b 361 28 431 -17 388 1 b 322 154 333 56 321 93 b 337 307 322 195 323 212 b 346 393 344 351 346 370 b 346 413 346 404 346 413 b 293 388 344 416 313 401 b 48 108 194 322 112 215 b 6 38 36 87 17 49 b -13 0 -4 29 -4 11 b -103 -3 -34 -25 -78 -29 b -119 54 -115 9 -126 28 b 3 409 -105 112 -33 313 b 61 549 22 460 50 527 b 117 592 74 575 93 590 b 172 498 158 595 202 545 b 137 418 167 491 146 442 b 327 535 186 464 255 520 b 462 453 400 550 447 510 b 457 285 471 418 470 369 b 443 155 449 231 443 206 "},"o":{"ha":738,"x_min":0,"x_max":0,"o":"m 66 -15 b -62 217 -39 -6 -78 92 b 41 476 -51 305 -4 407 b 70 519 53 494 52 502 b 132 583 90 538 113 567 b 200 626 153 602 182 620 b 226 631 207 629 220 631 b 262 619 238 631 252 625 b 469 443 401 651 487 585 b 425 302 465 404 444 346 b 450 301 424 301 428 301 b 721 388 562 305 650 338 b 732 399 727 393 730 395 b 799 426 744 417 767 435 b 843 352 825 419 854 391 b 830 325 841 343 835 331 b 762 270 818 308 795 290 b 470 180 677 219 592 188 b 358 185 434 178 382 180 b 346 171 356 185 355 184 b 228 48 311 125 269 81 b 66 -15 187 15 124 -20 m 325 506 b 239 483 289 506 269 496 b 212 446 219 474 212 471 b 275 343 212 399 242 364 b 301 328 283 337 300 328 b 309 343 302 329 305 335 b 348 454 329 381 344 423 b 343 505 351 471 353 501 b 325 506 339 506 336 506 m 111 354 b 92 316 110 354 96 326 b 57 188 72 269 60 225 b 71 106 55 162 54 110 b 95 110 77 105 86 107 b 189 177 123 119 150 138 b 233 225 206 193 233 223 b 224 231 233 226 229 228 b 117 342 176 259 139 297 b 111 354 114 349 111 354 "},"p":{"ha":814,"x_min":0,"x_max":0,"o":"m 211 569 b 209 563 210 565 209 563 b 286 610 232 577 263 599 b 494 592 365 650 447 656 b 514 455 520 559 527 508 b 429 291 502 408 476 356 b 356 200 409 262 379 225 b 348 190 351 195 348 191 b 377 176 348 189 363 182 b 454 159 405 165 432 159 b 567 187 482 159 522 169 b 800 377 657 222 755 292 b 857 415 812 399 829 415 b 912 329 898 415 931 372 b 824 211 899 300 855 241 b 557 55 751 140 665 86 b 264 96 435 19 347 49 b 243 95 249 105 254 103 b 100 16 198 61 146 31 b -19 -2 47 -3 20 -4 b -29 -25 -21 -2 -22 -3 b -131 -357 -61 -116 -117 -280 b -203 -406 -136 -386 -163 -415 b -251 -347 -229 -400 -251 -378 b -127 64 -251 -312 -207 -167 b -118 94 -119 88 -118 91 b -49 276 -136 173 -90 236 l -39 303 b 76 577 2 408 50 523 b 114 639 95 615 102 627 b 211 569 160 683 244 634 m 393 519 b 385 518 391 519 389 518 b 295 475 360 513 331 499 b 160 349 245 441 200 400 b 131 311 145 331 131 311 b 139 308 131 311 135 309 b 228 263 163 300 186 288 b 240 256 235 259 240 256 b 251 266 241 256 245 261 b 364 413 292 307 333 361 b 398 509 388 452 400 487 b 393 519 398 516 397 519 m 142 173 b 75 199 121 185 93 198 b 68 196 73 199 72 198 b 45 182 61 190 48 189 b 22 120 41 170 22 124 b 30 122 22 120 28 121 b 142 173 74 132 107 150 "},"q":{"ha":738,"x_min":0,"x_max":0,"o":"m 194 92 b 180 126 188 101 180 116 l 180 129 b 83 78 149 106 112 84 b -53 157 11 64 -35 103 b -14 374 -76 227 -42 318 b 118 559 24 448 64 505 b 269 658 175 615 225 649 b 400 588 336 672 378 633 b 468 645 416 615 427 645 b 529 583 506 645 531 615 b 533 571 529 577 529 577 b 522 492 552 542 543 512 b 478 428 510 479 498 461 b 370 213 440 364 403 289 b 365 197 364 199 364 198 b 424 181 380 186 400 181 b 500 195 450 181 471 185 b 679 319 558 215 622 259 b 727 380 707 348 720 364 b 803 415 739 410 772 426 b 842 343 833 405 850 373 b 724 193 831 299 764 229 b 508 70 652 129 581 89 b 417 59 477 62 442 58 b 405 59 411 59 405 59 b 410 49 405 59 407 55 b 438 -115 432 5 444 -48 b 341 -413 430 -218 385 -342 b 236 -504 308 -465 274 -495 b 183 -500 216 -509 196 -506 b 110 -283 126 -477 101 -402 b 186 66 117 -192 144 -69 l 194 92 m 305 450 b 289 537 293 467 305 525 b 280 533 287 537 285 536 b 76 279 205 495 111 371 b 61 202 70 260 57 225 b 70 202 61 198 61 198 b 99 220 78 206 90 213 b 296 439 145 255 217 334 l 305 450 m 301 -6 b 293 -1 296 5 296 9 b 236 -250 268 -82 245 -184 b 230 -343 232 -283 229 -319 b 232 -358 231 -352 232 -358 b 237 -349 232 -358 234 -354 b 317 -108 272 -294 310 -187 b 301 -6 321 -67 315 -33 "},"r":{"ha":526,"x_min":0,"x_max":0,"o":"m -132 27 b 18 450 -125 122 -33 318 b 42 511 22 458 32 486 b 87 608 72 588 76 597 b 191 562 126 647 194 615 b 182 534 190 552 188 547 b 132 406 171 509 132 406 b 140 416 132 406 136 411 b 254 529 184 471 221 507 b 429 476 326 576 405 558 b 452 385 435 457 450 386 b 535 421 468 379 517 417 b 606 361 574 428 606 400 b 563 300 606 326 586 314 b 383 282 499 262 435 246 b 319 413 343 308 331 349 b 317 423 318 418 317 423 b 286 398 316 425 301 413 b 156 237 256 367 209 310 b -9 -5 84 134 57 102 b -82 -26 -22 -25 -56 -29 b -132 27 -108 -22 -128 -1 "},"s":{"ha":483,"x_min":0,"x_max":0,"o":"m -229 -242 b -322 -105 -290 -236 -335 -184 b -217 78 -309 -28 -268 28 b -17 215 -166 128 -92 177 b -10 219 -13 217 -10 219 b -9 274 -9 220 -9 244 b -3 386 -8 336 -7 357 b 170 637 15 502 80 592 b 241 659 198 651 220 659 b 303 610 271 660 297 639 b 255 539 310 577 288 545 b 161 475 216 531 185 504 b 113 300 126 432 115 380 l 112 275 l 130 283 b 395 381 222 321 286 343 b 490 416 468 406 475 409 b 521 423 503 422 508 423 b 572 331 571 423 595 369 b 430 264 552 299 466 276 b 112 142 295 218 211 188 b 109 136 110 141 109 140 b -20 -137 97 18 50 -66 b -141 -223 -57 -175 -98 -204 b -229 -242 -170 -236 -193 -246 m -30 69 b -166 -48 -85 36 -133 -1 b -199 -112 -181 -69 -193 -92 b -199 -116 -201 -116 -201 -116 b -184 -109 -198 -115 -191 -112 b -47 29 -133 -84 -78 -31 b -30 69 -38 47 -30 69 "},"t":{"ha":436,"x_min":0,"x_max":0,"o":"m -154 632 b -171 744 -204 643 -226 729 b 160 792 -69 774 45 787 b 219 916 180 835 200 877 b 293 974 235 950 250 981 b 343 898 328 968 354 935 b 301 806 342 893 325 856 b 295 793 299 802 297 797 b 559 781 388 792 479 786 b 602 773 588 779 590 780 b 634 720 620 765 634 745 b 601 666 634 697 620 675 b 557 660 588 660 586 656 b 241 679 448 674 342 681 b 80 233 174 533 113 384 b 69 142 71 194 68 171 b 71 116 69 125 69 123 b 73 107 72 111 73 108 b 96 113 74 107 87 110 b 334 290 181 145 262 217 b 431 391 380 335 424 380 b 494 416 442 407 465 422 b 523 311 540 406 557 353 b 372 156 505 288 415 196 b 270 72 342 128 303 96 b 90 -13 202 24 137 -7 b -52 111 2 -25 -42 37 b -52 180 -54 126 -54 160 b 38 510 -44 258 -14 371 b 105 672 55 558 79 614 b -54 647 50 666 -4 658 b -154 632 -134 630 -140 629 "},"u":{"ha":735,"x_min":0,"x_max":0,"o":"m 79 582 b 144 620 91 605 112 625 b 186 525 191 612 208 566 b 58 194 130 402 78 316 b 59 105 53 165 45 125 b 107 124 67 97 88 111 b 353 383 211 202 307 305 b 447 582 390 444 410 508 b 513 620 459 604 480 625 b 555 525 559 612 576 566 b 427 194 498 402 446 316 b 428 105 422 165 414 125 b 476 124 436 97 457 111 b 722 383 580 202 667 314 b 835 354 751 433 835 417 b 830 327 835 342 834 336 b 726 196 816 299 782 257 b 559 33 652 114 599 62 b 479 -9 529 12 507 0 b 304 99 384 -39 313 20 b 304 138 303 112 304 125 b 190 33 257 88 220 54 b 110 -9 160 12 138 0 b -65 99 15 -39 -55 20 b 79 582 -69 250 24 478 "},"v":{"ha":785,"x_min":0,"x_max":0,"o":"m 816 409 b 876 349 852 409 876 385 b 855 303 876 326 868 313 b 659 235 791 261 732 243 b 436 377 536 222 469 289 b 423 379 430 392 433 392 b 234 138 366 297 298 210 b 82 -4 162 57 117 15 b -36 15 38 -27 -11 -17 b -37 269 -82 73 -57 189 b 67 611 0 398 20 489 b 180 594 92 658 169 649 b 180 570 182 586 182 578 b 162 514 179 567 171 542 b 74 208 123 387 106 349 b 62 133 68 182 63 153 l 74 145 b 380 534 177 246 300 407 b 426 610 393 554 418 589 b 525 629 440 648 495 658 b 540 569 538 616 547 595 b 581 370 523 499 545 399 b 641 352 596 359 612 353 b 775 395 696 350 728 364 b 816 409 793 407 793 409 "},"w":{"ha":1186,"x_min":0,"x_max":0,"o":"m 50 -19 b -77 161 -58 -33 -92 56 b -56 252 -74 182 -65 219 b 91 582 -26 355 30 479 b 136 639 108 610 125 631 b 220 633 161 656 197 657 b 212 542 246 606 243 564 b 190 510 207 538 203 531 b 90 302 151 442 116 371 b 43 141 68 245 49 181 b 41 107 42 130 40 111 b 51 107 42 103 41 103 b 241 264 110 130 190 208 b 337 377 273 300 288 318 b 400 450 383 433 387 438 b 472 479 418 469 440 486 b 523 435 498 474 515 459 b 520 354 529 417 529 412 b 507 235 511 286 509 266 b 518 137 506 194 509 164 b 537 112 523 122 524 113 b 604 141 559 111 584 122 b 754 444 651 189 715 332 b 802 569 780 516 793 551 b 839 607 811 587 823 599 b 924 568 874 623 913 605 b 926 515 925 564 926 556 b 963 344 927 438 930 378 b 1055 337 981 326 1025 329 b 1182 397 1094 347 1152 374 b 1243 411 1202 412 1219 419 b 1285 353 1266 403 1285 383 b 1267 311 1285 336 1280 323 b 1111 227 1241 284 1170 246 b 948 217 1049 206 998 203 b 842 308 900 231 868 258 b 837 316 839 313 837 316 b 833 308 837 317 835 313 b 647 22 792 202 729 72 b 495 -4 600 -7 541 -17 b 386 213 422 17 387 106 l 385 244 l 372 229 b 186 47 317 165 247 93 b 50 -19 131 6 90 -14 "},"x":{"ha":671,"x_min":0,"x_max":0,"o":"m -93 -9 b -1 197 -86 33 -50 111 b -7 344 -9 236 -12 293 b 33 561 -2 413 11 480 b 85 637 43 599 48 627 b 160 590 118 645 153 624 b 152 534 162 577 162 570 b 121 394 136 478 127 434 b 119 379 120 386 119 380 b 128 390 119 379 123 384 b 256 529 167 439 219 496 b 380 603 301 570 342 594 b 472 542 429 615 470 586 b 395 480 475 503 438 471 b 228 321 351 457 294 402 b 144 201 203 289 178 254 l 132 182 b 280 130 158 130 208 113 b 530 273 349 147 440 199 b 667 397 574 309 626 356 b 733 415 682 413 704 425 b 754 312 774 400 788 347 b 604 176 732 289 636 202 b 418 53 543 127 479 84 b 241 2 356 22 296 5 b 66 66 161 -3 110 27 l 57 47 b 30 -20 44 20 35 -3 b 29 -34 28 -26 28 -26 b -46 -101 34 -70 3 -115 b -93 -9 -82 -92 -101 -56 "},"y":{"ha":836,"x_min":0,"x_max":0,"o":"m 108 621 b 198 541 159 672 244 600 b 78 168 139 464 78 275 b 100 129 78 128 75 119 b 350 362 172 159 284 285 b 505 559 399 419 436 467 b 608 572 531 593 577 606 b 629 526 623 557 629 544 b 605 445 629 512 627 505 b 599 429 603 439 601 434 l 599 429 b 593 418 597 426 596 422 b 504 197 571 346 530 276 b 493 165 498 179 493 165 b 562 183 494 164 544 177 b 796 340 658 214 738 267 b 826 383 807 353 820 372 b 901 415 838 407 865 427 b 940 344 925 407 949 380 b 913 294 937 333 929 318 b 680 99 862 216 771 141 b 443 28 613 69 548 51 b 439 22 442 28 441 26 b 387 -98 431 0 396 -78 b 382 -108 384 -103 382 -108 b 343 -186 382 -109 350 -172 b 238 -348 304 -258 274 -305 b 93 -463 193 -401 154 -438 b -61 -459 38 -486 -16 -486 b -136 -243 -118 -424 -161 -340 b -89 -138 -128 -209 -111 -171 b 57 6 -54 -85 4 -29 b -44 168 -14 22 -44 78 b 13 442 -44 243 -24 340 b 108 621 35 505 69 582 m 379 211 b 277 108 348 177 310 138 b 349 130 307 118 343 129 b 355 140 352 130 352 130 b 379 211 363 161 369 187 m 291 -15 b 24 -190 175 -56 92 -103 b -19 -273 4 -215 -12 -246 b 8 -358 -27 -308 -15 -350 b 31 -356 11 -359 22 -358 b 137 -278 71 -347 110 -310 b 291 -15 192 -215 250 -105 "},"z":{"ha":846,"x_min":0,"x_max":0,"o":"m 455 569 b 401 380 453 503 425 437 b 410 380 401 380 404 380 b 461 360 432 379 448 371 b 508 193 497 330 515 268 b 505 165 507 184 505 173 b 573 183 505 164 555 177 b 808 340 669 214 749 267 b 837 383 818 353 831 372 b 912 415 849 407 876 427 b 951 344 936 407 960 380 b 925 294 949 333 940 318 b 691 99 873 216 782 141 b 454 28 624 69 559 50 b 450 22 453 28 452 26 b 398 -98 442 0 407 -78 b 393 -108 395 -103 393 -108 b 354 -186 393 -109 362 -172 b 249 -348 315 -258 285 -305 b 104 -463 204 -401 166 -438 b -50 -459 49 -486 -5 -486 b -125 -243 -107 -424 -150 -340 b -78 -138 -117 -209 -100 -171 b 260 99 -1 -23 115 49 b 360 130 292 110 352 128 b 385 247 381 151 395 213 b 264 131 345 222 296 171 b 193 90 243 103 230 84 b 141 152 165 94 140 117 b 168 212 142 169 142 170 b 268 385 208 274 243 334 b 329 543 302 451 321 500 b 332 564 332 554 333 564 b 301 546 331 564 311 552 b 209 468 272 527 245 504 b 120 366 163 423 140 397 b 16 343 95 329 53 307 b 12 427 -8 367 -8 404 b 22 438 15 430 19 435 b 117 548 43 471 67 498 b 309 686 172 602 247 666 b 455 569 397 714 457 655 m 302 -15 b 35 -190 187 -56 103 -103 b -7 -273 15 -215 -1 -246 b 19 -358 -16 -308 -4 -350 b 42 -356 22 -359 33 -358 b 149 -278 82 -347 121 -310 b 302 -15 203 -215 261 -105 "},"{":{"ha":400,"x_min":0,"x_max":0,"o":"m 327 33 b 387 -27 359 33 387 8 b 298 -106 387 -79 341 -93 b 152 -122 264 -116 201 -127 b 5 4 69 -113 20 -71 b 26 156 -7 65 4 105 b 58 222 32 171 34 176 b 80 288 79 264 83 276 b 54 318 77 306 71 306 b 19 344 32 332 26 337 b 0 393 8 356 0 371 b 14 433 0 409 4 419 b 47 462 21 442 25 445 b 92 504 72 480 78 485 b 145 627 119 542 138 585 b 154 741 150 654 151 673 b 239 968 158 849 182 913 b 366 1025 268 996 315 1029 b 499 928 427 1020 466 977 b 436 835 527 885 490 824 b 390 872 418 839 405 849 b 352 901 381 885 367 908 b 278 780 312 882 285 835 b 275 719 277 772 276 752 b 200 446 270 589 257 532 b 166 403 188 428 179 417 l 157 393 b 201 258 186 362 211 318 b 161 156 196 230 189 213 b 127 80 139 113 132 98 b 142 3 119 52 118 10 b 291 22 174 -7 269 6 b 327 33 303 29 313 33 "},"|":{"ha":400,"x_min":0,"x_max":0,"o":"m 89 2 b 45 89 50 9 30 47 b 193 546 93 220 154 428 b 298 843 232 661 254 725 b 334 934 309 874 320 902 b 388 1004 348 967 351 995 b 462 930 428 1014 473 981 b 449 894 461 922 459 916 b 397 759 429 847 421 826 b 207 186 319 547 269 388 b 170 77 201 169 181 110 b 141 17 154 32 152 28 b 89 2 127 4 107 -2 "},"}":{"ha":453,"x_min":0,"x_max":0,"o":"m 93 869 b 33 929 61 869 33 894 b 121 1008 33 981 79 995 b 268 1024 156 1018 219 1029 b 415 898 351 1015 400 973 b 394 746 427 837 416 797 b 362 680 388 731 385 726 b 339 614 341 638 337 626 b 366 584 343 596 348 596 b 400 558 387 570 394 565 b 420 509 412 546 420 531 b 405 469 420 493 416 483 b 372 440 398 460 395 457 b 328 398 347 422 341 417 b 275 275 300 360 282 317 b 266 161 270 248 269 229 b 181 -66 262 53 238 -11 b 54 -123 152 -94 105 -127 b -79 -26 -7 -118 -46 -75 b -17 67 -108 17 -71 78 b 30 30 2 63 15 53 b 68 1 39 17 53 -6 b 142 122 108 20 135 67 b 145 183 143 130 144 150 b 220 456 150 313 163 370 b 254 499 232 474 241 485 l 263 509 b 219 644 234 540 209 584 b 259 746 224 672 230 689 b 292 822 281 789 287 804 b 277 899 300 850 301 892 b 128 880 246 909 151 896 b 93 869 117 873 106 869 "},"~":{"ha":603,"x_min":0,"x_max":0,"o":"m 362 447 b 308 466 338 451 324 456 b 252 527 288 478 275 493 b 218 569 236 550 220 569 b 190 540 216 569 200 553 b 159 496 177 524 169 512 b 132 463 146 474 142 470 b 47 481 104 444 65 452 b 43 538 36 498 35 520 b 69 581 46 544 61 569 b 102 624 77 593 90 610 b 180 685 129 657 154 677 b 270 679 210 695 240 693 b 351 597 297 667 317 647 b 368 574 358 587 365 577 b 376 569 372 569 372 569 b 394 573 382 568 389 570 b 459 630 420 589 451 616 b 499 661 468 646 482 657 b 525 661 506 662 518 662 b 572 613 549 656 567 637 b 572 587 574 607 574 594 b 548 546 569 576 560 560 b 468 476 528 521 502 499 b 403 449 444 460 429 454 b 362 447 394 447 369 448 l 362 447 "}}}
